<mxfile host="65bd71144e">
    <diagram id="2569vQA7NOPKPgQd0dDL" name="Page-1">
        <mxGraphModel dx="2880" dy="656" grid="0" gridSize="10" guides="1" tooltips="1" connect="1" arrows="1" fold="1" page="1" pageScale="1" pageWidth="1200" pageHeight="1600" background="none" math="0" shadow="1">
            <root>
                <mxCell id="0"/>
                <mxCell id="1" parent="0"/>
                <mxCell id="21" style="edgeStyle=none;html=1;entryX=0;entryY=0.5;entryDx=0;entryDy=0;exitX=1;exitY=0.5;exitDx=0;exitDy=0;rounded=0;" parent="1" source="3" target="6" edge="1">
                    <mxGeometry relative="1" as="geometry"/>
                </mxCell>
                <mxCell id="3" value="前缀和" style="swimlane;whiteSpace=wrap;html=1;rounded=0;" parent="1" vertex="1">
                    <mxGeometry x="-480" y="940" width="200" height="250" as="geometry"/>
                </mxCell>
                <mxCell id="34" style="edgeStyle=none;html=1;exitX=0.5;exitY=1;exitDx=0;exitDy=0;entryX=0.5;entryY=0;entryDx=0;entryDy=0;rounded=0;" parent="3" source="19" target="33" edge="1">
                    <mxGeometry relative="1" as="geometry"/>
                </mxCell>
                <mxCell id="19" value="基础必会&lt;br&gt;303&lt;br&gt;304" style="whiteSpace=wrap;html=1;rounded=0;" parent="3" vertex="1">
                    <mxGeometry x="40" y="50" width="120" height="70" as="geometry"/>
                </mxCell>
                <mxCell id="33" value="2559" style="whiteSpace=wrap;html=1;rounded=0;" parent="3" vertex="1">
                    <mxGeometry x="40" y="160" width="120" height="60" as="geometry"/>
                </mxCell>
                <mxCell id="5" value="单调栈" style="swimlane;whiteSpace=wrap;html=1;rounded=0;" parent="1" vertex="1">
                    <mxGeometry x="-480" y="540" width="200" height="310" as="geometry"/>
                </mxCell>
                <UserObject label="239&lt;br&gt;1475&lt;br&gt;84" id="17">
                    <mxCell style="whiteSpace=wrap;html=1;rounded=0;" parent="5" vertex="1">
                        <mxGeometry x="47.5" y="220" width="105" height="60" as="geometry"/>
                    </mxCell>
                </UserObject>
                <mxCell id="24" style="edgeStyle=none;html=1;exitX=0.5;exitY=1;exitDx=0;exitDy=0;entryX=0.5;entryY=0;entryDx=0;entryDy=0;rounded=0;" parent="5" source="22" target="17" edge="1">
                    <mxGeometry relative="1" as="geometry"/>
                </mxCell>
                <mxCell id="22" value="基础必会&lt;br&gt;496&lt;br&gt;503&lt;br&gt;739" style="whiteSpace=wrap;html=1;rounded=0;" parent="5" vertex="1">
                    <mxGeometry x="40" y="40" width="120" height="100" as="geometry"/>
                </mxCell>
                <mxCell id="6" value="前缀和+单调栈" style="swimlane;whiteSpace=wrap;html=1;rounded=0;" parent="1" vertex="1">
                    <mxGeometry x="60" y="900" width="120" height="100" as="geometry"/>
                </mxCell>
                <mxCell id="18" value="85" style="whiteSpace=wrap;html=1;rounded=0;" parent="6" vertex="1">
                    <mxGeometry x="40" y="40" width="40" height="30" as="geometry"/>
                </mxCell>
                <mxCell id="9" value="" style="endArrow=classic;html=1;exitX=1;exitY=0.5;exitDx=0;exitDy=0;entryX=0;entryY=0.5;entryDx=0;entryDy=0;rounded=0;" parent="1" source="5" target="6" edge="1">
                    <mxGeometry width="50" height="50" relative="1" as="geometry">
                        <mxPoint x="-470" y="700" as="sourcePoint"/>
                        <mxPoint x="-420" y="650" as="targetPoint"/>
                    </mxGeometry>
                </mxCell>
                <mxCell id="25" value="DP+单调栈" style="swimlane;whiteSpace=wrap;html=1;startSize=23;rounded=0;" parent="1" vertex="1">
                    <mxGeometry x="50" y="570" width="120" height="100" as="geometry"/>
                </mxCell>
                <mxCell id="26" value="2560" style="whiteSpace=wrap;html=1;rounded=0;" parent="25" vertex="1">
                    <mxGeometry x="40" y="40" width="40" height="30" as="geometry"/>
                </mxCell>
                <mxCell id="28" value="" style="endArrow=classic;html=1;exitX=1;exitY=0.5;exitDx=0;exitDy=0;entryX=0;entryY=0.5;entryDx=0;entryDy=0;rounded=0;" parent="1" source="5" target="25" edge="1">
                    <mxGeometry width="50" height="50" relative="1" as="geometry">
                        <mxPoint x="-210" y="645" as="sourcePoint"/>
                        <mxPoint x="130" y="900" as="targetPoint"/>
                    </mxGeometry>
                </mxCell>
                <mxCell id="31" style="edgeStyle=none;html=1;exitX=1;exitY=0.5;exitDx=0;exitDy=0;entryX=0;entryY=0.5;entryDx=0;entryDy=0;rounded=0;" parent="1" source="30" target="25" edge="1">
                    <mxGeometry relative="1" as="geometry"/>
                </mxCell>
                <mxCell id="30" value="DP" style="swimlane;whiteSpace=wrap;html=1;rounded=0;" parent="1" vertex="1">
                    <mxGeometry x="-480" y="300" width="210" height="80" as="geometry"/>
                </mxCell>
                <mxCell id="37" style="edgeStyle=none;html=1;exitX=1;exitY=0.5;exitDx=0;exitDy=0;entryX=0;entryY=0.5;entryDx=0;entryDy=0;rounded=0;" parent="1" source="35" target="5" edge="1">
                    <mxGeometry relative="1" as="geometry"/>
                </mxCell>
                <mxCell id="35" value="堆栈" style="swimlane;whiteSpace=wrap;html=1;rounded=0;" parent="1" vertex="1">
                    <mxGeometry x="-990" y="544" width="268" height="306" as="geometry"/>
                </mxCell>
                <mxCell id="36" value="基础必会&lt;br&gt;20 括号对" style="whiteSpace=wrap;html=1;rounded=0;" parent="35" vertex="1">
                    <mxGeometry x="40" y="40" width="196" height="65" as="geometry"/>
                </mxCell>
                <mxCell id="39" value="&lt;font style=&quot;font-size: 12px;&quot;&gt;&lt;font face=&quot;Helvetica&quot;&gt;基础必会&lt;br&gt;实现计算器&lt;br&gt;224 计算器I (堆栈+递归)&lt;br&gt;227 计算器II&lt;br&gt;772&lt;/font&gt;&lt;br&gt;&lt;/font&gt;" style="whiteSpace=wrap;html=1;hachureGap=4;fontFamily=Architects Daughter;fontSource=https%3A%2F%2Ffonts.googleapis.com%2Fcss%3Ffamily%3DArchitects%2BDaughter;fontSize=20;" vertex="1" parent="35">
                    <mxGeometry x="40" y="135" width="195" height="134" as="geometry"/>
                </mxCell>
                <mxCell id="41" style="edgeStyle=none;html=1;exitX=0.5;exitY=0;exitDx=0;exitDy=0;entryX=0.5;entryY=1;entryDx=0;entryDy=0;fontFamily=Helvetica;" edge="1" parent="1" source="40" target="35">
                    <mxGeometry relative="1" as="geometry"/>
                </mxCell>
                <mxCell id="40" value="递归" style="swimlane;whiteSpace=wrap;html=1;fontFamily=Helvetica;" vertex="1" parent="1">
                    <mxGeometry x="-956" y="940" width="200" height="200" as="geometry"/>
                </mxCell>
            </root>
        </mxGraphModel>
    </diagram>
</mxfile>